<svg xmlns="http://www.w3.org/2000/svg" xmlns:xlink="http://www.w3.org/1999/xlink" viewBox="0 0 848 149.71"><defs><style>.cls-1{fill:url(#linear-gradient);}.cls-2{fill:url(#linear-gradient-2);}.cls-3{fill:#1a202c;}</style><linearGradient id="linear-gradient" x1="37.56" x2="37.56" y2="145.71" gradientUnits="userSpaceOnUse"><stop offset="0" stop-color="#ffb703"/><stop offset="1" stop-color="#fb8500"/></linearGradient><linearGradient id="linear-gradient-2" x1="120.44" y1="4" x2="120.44" y2="149.71" xlink:href="#linear-gradient"/></defs><g id="Layer_2" data-name="Layer 2"><g id="Layer_1-2" data-name="Layer 1"><path class="cls-1" d="M2.27,0h0A2.27,2.27,0,0,0,0,2.27V143.45a2.26,2.26,0,0,0,2.27,2.26h0A72.86,72.86,0,0,0,2.27,0Z"/><path class="cls-2" d="M155.73,149.71h0a2.26,2.26,0,0,0,2.27-2.26V6.27A2.27,2.27,0,0,0,155.73,4h0a72.86,72.86,0,0,0,0,145.71Z"/><path class="cls-3" d="M272.58,94.34h-.84a15.45,15.45,0,0,1-5.83,5.53,19.39,19.39,0,0,1-9.8,2.29,22.16,22.16,0,0,1-9.32-2A24.94,24.94,0,0,1,239,94.5a26.69,26.69,0,0,1-5.37-8.6,31.21,31.21,0,0,1,0-21.88,26.79,26.79,0,0,1,5.37-8.6,24.9,24.9,0,0,1,7.82-5.62,22,22,0,0,1,9.32-2,19.28,19.28,0,0,1,9.8,2.3,15.43,15.43,0,0,1,5.83,5.52h.84l-.84-7.3V25.88h13.65v74.61H272.58Zm-13.65-4.79a13.6,13.6,0,0,0,5.15-1,12.85,12.85,0,0,0,4.33-2.87,14.11,14.11,0,0,0,3-4.58,17,17,0,0,0,0-12.3,14.22,14.22,0,0,0-3-4.58,12.85,12.85,0,0,0-4.33-2.87,13.6,13.6,0,0,0-5.15-1,13.11,13.11,0,0,0-5.16,1,13.61,13.61,0,0,0-4.33,2.92,14.16,14.16,0,0,0-3,4.59,16.46,16.46,0,0,0,0,12.09,14.22,14.22,0,0,0,3,4.58,13.61,13.61,0,0,0,4.33,2.92A13.11,13.11,0,0,0,258.93,89.55Z"/><path class="cls-3" d="M345.94,88.2a28.6,28.6,0,0,1-9.54,10.1,26.48,26.48,0,0,1-14.64,3.86,28.19,28.19,0,0,1-10.78-2A25.72,25.72,0,0,1,296.7,85.85a28.5,28.5,0,0,1-2-10.89,27.93,27.93,0,0,1,2-10.47A26.42,26.42,0,0,1,310.56,50a25.63,25.63,0,0,1,10.68-2.19,27.68,27.68,0,0,1,10.94,2,22.37,22.37,0,0,1,8,5.62,24.47,24.47,0,0,1,4.9,8.49,32.85,32.85,0,0,1,1.66,10.63v1.25a7,7,0,0,0-.1,1.15,5.83,5.83,0,0,0-.11,1.15H308.11a14.34,14.34,0,0,0,1.72,5.36,12.93,12.93,0,0,0,3.23,3.75,12.51,12.51,0,0,0,4.22,2.19,16.18,16.18,0,0,0,4.69.68,13.3,13.3,0,0,0,7.76-2.13,15.68,15.68,0,0,0,4.85-5.37Zm-12.4-19.8a8.94,8.94,0,0,0-.89-3,10.53,10.53,0,0,0-2.29-3.12,12.21,12.21,0,0,0-3.75-2.4,14,14,0,0,0-5.37-.94,12.53,12.53,0,0,0-7.71,2.5,13.23,13.23,0,0,0-4.69,7Z"/><path class="cls-3" d="M377.3,102.16a29.37,29.37,0,0,1-8.91-1.25,24.93,24.93,0,0,1-6.77-3.28,21.65,21.65,0,0,1-4.85-4.69,22.87,22.87,0,0,1-3-5.37l12.19-5.21a13.22,13.22,0,0,0,4.75,5.89,11.92,11.92,0,0,0,6.61,1.93,11.26,11.26,0,0,0,5.94-1.36,3.84,3.84,0,0,0,2.19-3.23,4,4,0,0,0-1.82-3.39,18.8,18.8,0,0,0-6.31-2.34l-7.19-1.56a25.56,25.56,0,0,1-4.95-1.67,19.4,19.4,0,0,1-4.63-2.92,14.64,14.64,0,0,1-3.44-4.27,12,12,0,0,1-1.36-5.84,13.53,13.53,0,0,1,1.62-6.67,15,15,0,0,1,4.43-5,21.27,21.27,0,0,1,6.61-3.12,29.51,29.51,0,0,1,8.18-1.1,28.74,28.74,0,0,1,13,2.87A17.66,17.66,0,0,1,398,59.75l-11.78,4.79A9,9,0,0,0,382,60.16a12.89,12.89,0,0,0-5.63-1.35,10.45,10.45,0,0,0-5.1,1.2,3.52,3.52,0,0,0-2.19,3.07,3.15,3.15,0,0,0,1.82,2.81,21.26,21.26,0,0,0,4.95,1.88l7.82,1.88q7.81,1.88,11.62,6a13.89,13.89,0,0,1,3.8,9.74,13.68,13.68,0,0,1-1.56,6.36,17.15,17.15,0,0,1-4.43,5.37,21.64,21.64,0,0,1-6.88,3.69A27.5,27.5,0,0,1,377.3,102.16Z"/><path class="cls-3" d="M415.55,42.55a8.72,8.72,0,0,1-6.2-2.55,8.84,8.84,0,0,1-1.88-2.76,9,9,0,0,1,0-6.88,8.84,8.84,0,0,1,1.88-2.76,8.87,8.87,0,0,1,12.45,0,8.69,8.69,0,0,1,0,12.4A8.62,8.62,0,0,1,415.55,42.55Zm-6.78,57.94V49.43h13.65v51.06Z"/><path class="cls-3" d="M459,124.67a30.37,30.37,0,0,1-9.64-1.41,27.43,27.43,0,0,1-7.35-3.65,24.45,24.45,0,0,1-5.21-5,19.28,19.28,0,0,1-3-5.42l13-5.2a12.45,12.45,0,0,0,4.79,6.3,13,13,0,0,0,7.4,2.24q6.47,0,10.21-4.19T473,96.84V93.3h-.83a16.6,16.6,0,0,1-6.31,5.26,20.51,20.51,0,0,1-9.22,1.93,22.39,22.39,0,0,1-8.91-1.86A23.26,23.26,0,0,1,440,93.32,27.33,27.33,0,0,1,434.62,85a27,27,0,0,1-2.09-10.83A27.52,27.52,0,0,1,440,54.93a23.56,23.56,0,0,1,7.66-5.31,22.39,22.39,0,0,1,8.91-1.86,20.65,20.65,0,0,1,9.22,1.93A16.78,16.78,0,0,1,472.13,55H473V49.43h13V96.84a32.22,32.22,0,0,1-2,11.62,25.17,25.17,0,0,1-5.52,8.76,24.22,24.22,0,0,1-8.5,5.52A30.15,30.15,0,0,1,459,124.67Zm.52-36.47a14,14,0,0,0,5-.92,12.8,12.8,0,0,0,4.33-2.72,13.55,13.55,0,0,0,3-4.4,14.77,14.77,0,0,0,1.14-6,15.23,15.23,0,0,0-1.14-6,13.57,13.57,0,0,0-3-4.45A12.93,12.93,0,0,0,464.47,61a14,14,0,0,0-5-.92,13.64,13.64,0,0,0-4.9.92,12.55,12.55,0,0,0-4.27,2.76,14.06,14.06,0,0,0-3,4.45,16.15,16.15,0,0,0,0,12,13.4,13.4,0,0,0,3,4.4,12.74,12.74,0,0,0,4.27,2.72A13.64,13.64,0,0,0,459.52,88.2Z"/><path class="cls-3" d="M511.52,56.1h.83a17.37,17.37,0,0,1,6.46-6.1,18.94,18.94,0,0,1,9.28-2.24,21.15,21.15,0,0,1,8.44,1.57,15.43,15.43,0,0,1,6,4.43,19.62,19.62,0,0,1,3.54,6.87,31.08,31.08,0,0,1,1.2,8.91v30.95H533.61V71.21q0-5.52-2.45-8.18T524,60.37a10,10,0,0,0-4.95,1.2,11.57,11.57,0,0,0-3.64,3.23,14.7,14.7,0,0,0-2.3,4.79,21.66,21.66,0,0,0-.78,5.89v25H498.7V49.43h12.82Z"/><path class="cls-3" d="M558.51,100.49V88.09q6.15-6,11.36-11.25l4.48-4.48,4.28-4.28c1.32-1.32,2.5-2.51,3.54-3.59s1.84-1.93,2.4-2.56c1.11-1.31,2.1-2.5,3-3.54a16.81,16.81,0,0,0,2.08-3.07,16.08,16.08,0,0,0,1.2-3,12.24,12.24,0,0,0,.42-3.29,8,8,0,0,0-2.71-6,10.38,10.38,0,0,0-7.4-2.55,9.73,9.73,0,0,0-7.3,2.66,13.94,13.94,0,0,0-3.54,6L557.89,44a23.56,23.56,0,0,1,2.71-5.78,21.84,21.84,0,0,1,4.79-5.32,25.14,25.14,0,0,1,16-5.36,28.28,28.28,0,0,1,9.79,1.61,21.84,21.84,0,0,1,7.4,4.43,19.87,19.87,0,0,1,4.69,6.62,20.15,20.15,0,0,1,1.67,8.18,23.64,23.64,0,0,1-3.29,12.24,53.18,53.18,0,0,1-8,10.37l-9,9c-2.36,2.37-5,5-8,7.92l.41.63h28.87v12Z"/><path class="cls-3" d="M665.85,87.47A28.53,28.53,0,0,1,656.52,98q-6,4.13-14.95,4.12a28.5,28.5,0,0,1-10.89-2,25.54,25.54,0,0,1-8.55-5.68,26.38,26.38,0,0,1-5.62-8.6,28.31,28.31,0,0,1-2-10.89,28.68,28.68,0,0,1,2-10.94A25.15,25.15,0,0,1,630.68,49.8a28.31,28.31,0,0,1,10.89-2q8.85,0,14.9,4.07a24.13,24.13,0,0,1,8.86,10.52l-12.51,5.21a13.38,13.38,0,0,0-4.53-5.36,12.28,12.28,0,0,0-6.93-1.83,12.76,12.76,0,0,0-5.11,1,13,13,0,0,0-7.08,7.51,18.09,18.09,0,0,0,0,12.09A13.4,13.4,0,0,0,632,85.59a13.26,13.26,0,0,0,4.22,2.92,12.76,12.76,0,0,0,5.11,1,13,13,0,0,0,7.24-1.93,13.4,13.4,0,0,0,4.74-5.57Z"/><path class="cls-3" d="M698.88,47.76a28.31,28.31,0,0,1,10.89,2A25.15,25.15,0,0,1,723.94,64a30.35,30.35,0,0,1,0,21.88,25.21,25.21,0,0,1-14.17,14.23,30.22,30.22,0,0,1-21.78,0A25.29,25.29,0,0,1,673.82,85.9a30.49,30.49,0,0,1,0-21.88A25.23,25.23,0,0,1,688,49.8,28.31,28.31,0,0,1,698.88,47.76Zm0,41.79a13.41,13.41,0,0,0,5.06-1,12.91,12.91,0,0,0,4.32-2.87,13.53,13.53,0,0,0,3-4.58,17.74,17.74,0,0,0,0-12.3,13.63,13.63,0,0,0-3-4.58,12.91,12.91,0,0,0-4.32-2.87,13.41,13.41,0,0,0-5.06-1,13.21,13.21,0,0,0-5.1,1,13.05,13.05,0,0,0-4.28,2.87,13.63,13.63,0,0,0-3,4.58,17.89,17.89,0,0,0,0,12.3,13.53,13.53,0,0,0,3,4.58,13.05,13.05,0,0,0,4.28,2.87A13.21,13.21,0,0,0,698.88,89.55Z"/><path class="cls-3" d="M773.8,94.34H773a15.52,15.52,0,0,1-5.83,5.53,19.41,19.41,0,0,1-9.8,2.29,22.2,22.2,0,0,1-9.33-2,25,25,0,0,1-7.81-5.63,26.69,26.69,0,0,1-5.37-8.6,31.21,31.21,0,0,1,0-21.88,26.79,26.79,0,0,1,5.37-8.6A25,25,0,0,1,748,49.8a22.06,22.06,0,0,1,9.33-2,19.31,19.31,0,0,1,9.8,2.3A15.5,15.5,0,0,1,773,55.58h.83l-.83-7.3V25.88h13.65v74.61H773.8Zm-13.65-4.79a13.62,13.62,0,0,0,5.16-1,13,13,0,0,0,4.33-2.87,14.27,14.27,0,0,0,3-4.58,17.16,17.16,0,0,0,0-12.3,14.38,14.38,0,0,0-3-4.58,13,13,0,0,0-4.33-2.87,13.62,13.62,0,0,0-5.16-1,13.09,13.09,0,0,0-5.15,1,13.61,13.61,0,0,0-4.33,2.92,14.16,14.16,0,0,0-3,4.59,16.46,16.46,0,0,0,0,12.09,14.22,14.22,0,0,0,3,4.58A13.61,13.61,0,0,0,755,88.51,13.09,13.09,0,0,0,760.15,89.55Z"/><path class="cls-3" d="M847.17,88.2a28.69,28.69,0,0,1-9.54,10.1A26.48,26.48,0,0,1,823,102.16a28.15,28.15,0,0,1-10.78-2,25.72,25.72,0,0,1-14.28-14.28,28.5,28.5,0,0,1-2-10.89,27.93,27.93,0,0,1,2-10.47A26.42,26.42,0,0,1,811.79,50a25.63,25.63,0,0,1,10.68-2.19,27.68,27.68,0,0,1,10.94,2,22.37,22.37,0,0,1,8,5.62,24.29,24.29,0,0,1,4.89,8.49A32.86,32.86,0,0,1,848,74.54v1.25a7,7,0,0,0-.1,1.15,5.83,5.83,0,0,0-.11,1.15H809.34a14.34,14.34,0,0,0,1.72,5.36,12.79,12.79,0,0,0,3.23,3.75,12.42,12.42,0,0,0,4.22,2.19,16.18,16.18,0,0,0,4.69.68A13.3,13.3,0,0,0,831,87.94a15.68,15.68,0,0,0,4.85-5.37Zm-12.4-19.8a8.94,8.94,0,0,0-.89-3,10.7,10.7,0,0,0-2.29-3.12,12.21,12.21,0,0,0-3.75-2.4,14,14,0,0,0-5.37-.94,12.53,12.53,0,0,0-7.71,2.5,13.23,13.23,0,0,0-4.69,7Z"/></g></g></svg>